<mxfile host="app.diagrams.net" modified="2022-10-08T11:07:00.549Z" agent="5.0 (Windows NT 10.0; Win64; x64) AppleWebKit/537.36 (KHTML, like Gecko) Chrome/106.0.0.0 Safari/537.36" etag="fjh672l0shgGDyn1dgsd" version="20.4.0" type="github">
  <diagram id="C5RBs43oDa-KdzZeNtuy" name="Page-1">
    <mxGraphModel dx="1038" dy="481" grid="1" gridSize="10" guides="1" tooltips="1" connect="1" arrows="1" fold="1" page="1" pageScale="1" pageWidth="827" pageHeight="1169" math="0" shadow="0">
      <root>
        <mxCell id="WIyWlLk6GJQsqaUBKTNV-0" />
        <mxCell id="WIyWlLk6GJQsqaUBKTNV-1" parent="WIyWlLk6GJQsqaUBKTNV-0" />
        <mxCell id="woFlV1oVEV1j4pW9QUOj-0" value="" style="rounded=0;whiteSpace=wrap;html=1;" parent="WIyWlLk6GJQsqaUBKTNV-1" vertex="1">
          <mxGeometry x="590" y="540" width="370" height="120" as="geometry" />
        </mxCell>
        <mxCell id="woFlV1oVEV1j4pW9QUOj-1" value="Educational Human&#xa;" style="swimlane;fontStyle=1;align=center;verticalAlign=top;childLayout=stackLayout;horizontal=1;startSize=26;horizontalStack=0;resizeParent=1;resizeLast=0;collapsible=1;marginBottom=0;rounded=0;shadow=0;strokeWidth=1;" parent="WIyWlLk6GJQsqaUBKTNV-1" vertex="1">
          <mxGeometry x="800" y="1210" width="160" height="90" as="geometry">
            <mxRectangle x="230" y="140" width="160" height="26" as="alternateBounds" />
          </mxGeometry>
        </mxCell>
        <mxCell id="woFlV1oVEV1j4pW9QUOj-2" value="" style="line;html=1;strokeWidth=1;align=left;verticalAlign=middle;spacingTop=-1;spacingLeft=3;spacingRight=3;rotatable=0;labelPosition=right;points=[];portConstraint=eastwest;" parent="woFlV1oVEV1j4pW9QUOj-1" vertex="1">
          <mxGeometry y="26" width="160" height="8" as="geometry" />
        </mxCell>
        <mxCell id="woFlV1oVEV1j4pW9QUOj-3" value="notify # where to go" style="text;align=left;verticalAlign=top;spacingLeft=4;spacingRight=4;overflow=hidden;rotatable=0;points=[[0,0.5],[1,0.5]];portConstraint=eastwest;" parent="woFlV1oVEV1j4pW9QUOj-1" vertex="1">
          <mxGeometry y="34" width="160" height="26" as="geometry" />
        </mxCell>
        <mxCell id="woFlV1oVEV1j4pW9QUOj-4" value="leave_institute()" style="text;strokeColor=none;fillColor=none;align=left;verticalAlign=top;spacingLeft=4;spacingRight=4;overflow=hidden;rotatable=0;points=[[0,0.5],[1,0.5]];portConstraint=eastwest;" parent="woFlV1oVEV1j4pW9QUOj-1" vertex="1">
          <mxGeometry y="60" width="160" height="26" as="geometry" />
        </mxCell>
        <mxCell id="woFlV1oVEV1j4pW9QUOj-5" value="Student" style="swimlane;fontStyle=1;align=center;verticalAlign=top;childLayout=stackLayout;horizontal=1;startSize=26;horizontalStack=0;resizeParent=1;resizeLast=0;collapsible=1;marginBottom=0;rounded=0;shadow=0;strokeWidth=1;" parent="WIyWlLk6GJQsqaUBKTNV-1" vertex="1">
          <mxGeometry x="790" y="1480" width="160" height="164" as="geometry">
            <mxRectangle x="130" y="380" width="160" height="26" as="alternateBounds" />
          </mxGeometry>
        </mxCell>
        <mxCell id="woFlV1oVEV1j4pW9QUOj-6" value="vector&lt;subject&gt;" style="text;align=left;verticalAlign=top;spacingLeft=4;spacingRight=4;overflow=hidden;rotatable=0;points=[[0,0.5],[1,0.5]];portConstraint=eastwest;" parent="woFlV1oVEV1j4pW9QUOj-5" vertex="1">
          <mxGeometry y="26" width="160" height="26" as="geometry" />
        </mxCell>
        <mxCell id="woFlV1oVEV1j4pW9QUOj-7" value="" style="line;html=1;strokeWidth=1;align=left;verticalAlign=middle;spacingTop=-1;spacingLeft=3;spacingRight=3;rotatable=0;labelPosition=right;points=[];portConstraint=eastwest;" parent="woFlV1oVEV1j4pW9QUOj-5" vertex="1">
          <mxGeometry y="52" width="160" height="8" as="geometry" />
        </mxCell>
        <mxCell id="woFlV1oVEV1j4pW9QUOj-8" value="botay" style="text;align=left;verticalAlign=top;spacingLeft=4;spacingRight=4;overflow=hidden;rotatable=0;points=[[0,0.5],[1,0.5]];portConstraint=eastwest;rounded=0;shadow=0;html=0;" parent="woFlV1oVEV1j4pW9QUOj-5" vertex="1">
          <mxGeometry y="60" width="160" height="26" as="geometry" />
        </mxCell>
        <mxCell id="woFlV1oVEV1j4pW9QUOj-9" value="katay" style="text;align=left;verticalAlign=top;spacingLeft=4;spacingRight=4;overflow=hidden;rotatable=0;points=[[0,0.5],[1,0.5]];portConstraint=eastwest;" parent="woFlV1oVEV1j4pW9QUOj-5" vertex="1">
          <mxGeometry y="86" width="160" height="26" as="geometry" />
        </mxCell>
        <mxCell id="woFlV1oVEV1j4pW9QUOj-10" value="get_task" style="text;strokeColor=none;fillColor=none;align=left;verticalAlign=top;spacingLeft=4;spacingRight=4;overflow=hidden;rotatable=0;points=[[0,0.5],[1,0.5]];portConstraint=eastwest;" parent="woFlV1oVEV1j4pW9QUOj-5" vertex="1">
          <mxGeometry y="112" width="160" height="26" as="geometry" />
        </mxCell>
        <mxCell id="woFlV1oVEV1j4pW9QUOj-11" value="check_state" style="text;strokeColor=none;fillColor=none;align=left;verticalAlign=top;spacingLeft=4;spacingRight=4;overflow=hidden;rotatable=0;points=[[0,0.5],[1,0.5]];portConstraint=eastwest;" parent="woFlV1oVEV1j4pW9QUOj-5" vertex="1">
          <mxGeometry y="138" width="160" height="26" as="geometry" />
        </mxCell>
        <mxCell id="woFlV1oVEV1j4pW9QUOj-12" value="" style="endArrow=block;endSize=10;endFill=0;shadow=0;strokeWidth=1;rounded=0;edgeStyle=elbowEdgeStyle;elbow=vertical;" parent="WIyWlLk6GJQsqaUBKTNV-1" source="woFlV1oVEV1j4pW9QUOj-5" target="woFlV1oVEV1j4pW9QUOj-1" edge="1">
          <mxGeometry width="160" relative="1" as="geometry">
            <mxPoint x="360" y="1363" as="sourcePoint" />
            <mxPoint x="360" y="1363" as="targetPoint" />
            <Array as="points">
              <mxPoint x="880" y="1420" />
            </Array>
          </mxGeometry>
        </mxCell>
        <mxCell id="woFlV1oVEV1j4pW9QUOj-13" value="Teacher" style="swimlane;fontStyle=1;align=center;verticalAlign=top;childLayout=stackLayout;horizontal=1;startSize=26;horizontalStack=0;resizeParent=1;resizeLast=0;collapsible=1;marginBottom=0;rounded=0;shadow=0;strokeWidth=1;" parent="WIyWlLk6GJQsqaUBKTNV-1" vertex="1">
          <mxGeometry x="480" y="1200" width="160" height="34" as="geometry">
            <mxRectangle x="340" y="380" width="170" height="26" as="alternateBounds" />
          </mxGeometry>
        </mxCell>
        <mxCell id="woFlV1oVEV1j4pW9QUOj-14" value="" style="line;html=1;strokeWidth=1;align=left;verticalAlign=middle;spacingTop=-1;spacingLeft=3;spacingRight=3;rotatable=0;labelPosition=right;points=[];portConstraint=eastwest;" parent="woFlV1oVEV1j4pW9QUOj-13" vertex="1">
          <mxGeometry y="26" width="160" height="8" as="geometry" />
        </mxCell>
        <mxCell id="woFlV1oVEV1j4pW9QUOj-15" value="" style="endArrow=block;endSize=10;endFill=0;shadow=0;strokeWidth=1;rounded=0;edgeStyle=elbowEdgeStyle;elbow=vertical;" parent="WIyWlLk6GJQsqaUBKTNV-1" source="woFlV1oVEV1j4pW9QUOj-13" target="woFlV1oVEV1j4pW9QUOj-1" edge="1">
          <mxGeometry width="160" relative="1" as="geometry">
            <mxPoint x="370" y="1533" as="sourcePoint" />
            <mxPoint x="470" y="1431" as="targetPoint" />
          </mxGeometry>
        </mxCell>
        <mxCell id="woFlV1oVEV1j4pW9QUOj-16" value="Institute" style="swimlane;fontStyle=1;align=center;verticalAlign=top;childLayout=stackLayout;horizontal=1;startSize=26;horizontalStack=0;resizeParent=1;resizeLast=0;collapsible=1;marginBottom=0;rounded=0;shadow=0;strokeWidth=1;" parent="WIyWlLk6GJQsqaUBKTNV-1" vertex="1">
          <mxGeometry x="230" y="1510" width="160" height="86" as="geometry">
            <mxRectangle x="550" y="140" width="160" height="26" as="alternateBounds" />
          </mxGeometry>
        </mxCell>
        <mxCell id="woFlV1oVEV1j4pW9QUOj-17" value="vector&lt;Department&gt;" style="text;align=left;verticalAlign=top;spacingLeft=4;spacingRight=4;overflow=hidden;rotatable=0;points=[[0,0.5],[1,0.5]];portConstraint=eastwest;rounded=0;shadow=0;html=0;" parent="woFlV1oVEV1j4pW9QUOj-16" vertex="1">
          <mxGeometry y="26" width="160" height="26" as="geometry" />
        </mxCell>
        <mxCell id="woFlV1oVEV1j4pW9QUOj-18" value="vector&lt;Group&gt;" style="text;align=left;verticalAlign=top;spacingLeft=4;spacingRight=4;overflow=hidden;rotatable=0;points=[[0,0.5],[1,0.5]];portConstraint=eastwest;" parent="woFlV1oVEV1j4pW9QUOj-16" vertex="1">
          <mxGeometry y="52" width="160" height="26" as="geometry" />
        </mxCell>
        <mxCell id="woFlV1oVEV1j4pW9QUOj-19" value="" style="line;html=1;strokeWidth=1;align=left;verticalAlign=middle;spacingTop=-1;spacingLeft=3;spacingRight=3;rotatable=0;labelPosition=right;points=[];portConstraint=eastwest;" parent="woFlV1oVEV1j4pW9QUOj-16" vertex="1">
          <mxGeometry y="78" width="160" height="8" as="geometry" />
        </mxCell>
        <mxCell id="woFlV1oVEV1j4pW9QUOj-20" value="Dormitory" style="swimlane;fontStyle=1;align=center;verticalAlign=top;childLayout=stackLayout;horizontal=1;startSize=26;horizontalStack=0;resizeParent=1;resizeParentMax=0;resizeLast=0;collapsible=1;marginBottom=0;" parent="WIyWlLk6GJQsqaUBKTNV-1" vertex="1">
          <mxGeometry x="550" y="1700" width="160" height="34" as="geometry" />
        </mxCell>
        <mxCell id="woFlV1oVEV1j4pW9QUOj-21" value="" style="line;strokeWidth=1;fillColor=none;align=left;verticalAlign=middle;spacingTop=-1;spacingLeft=3;spacingRight=3;rotatable=0;labelPosition=right;points=[];portConstraint=eastwest;strokeColor=inherit;" parent="woFlV1oVEV1j4pW9QUOj-20" vertex="1">
          <mxGeometry y="26" width="160" height="8" as="geometry" />
        </mxCell>
        <mxCell id="woFlV1oVEV1j4pW9QUOj-22" value="" style="endArrow=none;dashed=1;html=1;dashPattern=1 3;strokeWidth=2;rounded=0;startArrow=none;" parent="WIyWlLk6GJQsqaUBKTNV-1" source="woFlV1oVEV1j4pW9QUOj-5" target="woFlV1oVEV1j4pW9QUOj-16" edge="1">
          <mxGeometry width="50" height="50" relative="1" as="geometry">
            <mxPoint x="550" y="1730" as="sourcePoint" />
            <mxPoint x="600" y="1680" as="targetPoint" />
            <Array as="points">
              <mxPoint x="730" y="1600" />
              <mxPoint x="510" y="1600" />
              <mxPoint x="510" y="1550" />
            </Array>
          </mxGeometry>
        </mxCell>
        <mxCell id="woFlV1oVEV1j4pW9QUOj-23" value="" style="endArrow=none;dashed=1;html=1;dashPattern=1 3;strokeWidth=2;rounded=0;" parent="WIyWlLk6GJQsqaUBKTNV-1" source="woFlV1oVEV1j4pW9QUOj-16" target="woFlV1oVEV1j4pW9QUOj-13" edge="1">
          <mxGeometry width="50" height="50" relative="1" as="geometry">
            <mxPoint x="720" y="1700" as="sourcePoint" />
            <mxPoint x="770" y="1650" as="targetPoint" />
          </mxGeometry>
        </mxCell>
        <mxCell id="woFlV1oVEV1j4pW9QUOj-24" value="Outer World&#xa;" style="swimlane;fontStyle=1;align=center;verticalAlign=top;childLayout=stackLayout;horizontal=1;startSize=26;horizontalStack=0;resizeParent=1;resizeParentMax=0;resizeLast=0;collapsible=1;marginBottom=0;" parent="WIyWlLk6GJQsqaUBKTNV-1" vertex="1">
          <mxGeometry x="770" y="1865" width="160" height="34" as="geometry" />
        </mxCell>
        <mxCell id="woFlV1oVEV1j4pW9QUOj-25" value="" style="line;strokeWidth=1;fillColor=none;align=left;verticalAlign=middle;spacingTop=-1;spacingLeft=3;spacingRight=3;rotatable=0;labelPosition=right;points=[];portConstraint=eastwest;strokeColor=inherit;" parent="woFlV1oVEV1j4pW9QUOj-24" vertex="1">
          <mxGeometry y="26" width="160" height="8" as="geometry" />
        </mxCell>
        <mxCell id="woFlV1oVEV1j4pW9QUOj-26" value="" style="endArrow=none;dashed=1;html=1;dashPattern=1 3;strokeWidth=2;rounded=0;" parent="WIyWlLk6GJQsqaUBKTNV-1" source="woFlV1oVEV1j4pW9QUOj-20" target="woFlV1oVEV1j4pW9QUOj-5" edge="1">
          <mxGeometry width="50" height="50" relative="1" as="geometry">
            <mxPoint x="550" y="1800" as="sourcePoint" />
            <mxPoint x="600" y="1750" as="targetPoint" />
          </mxGeometry>
        </mxCell>
        <mxCell id="woFlV1oVEV1j4pW9QUOj-27" value="" style="endArrow=none;dashed=1;html=1;dashPattern=1 3;strokeWidth=2;rounded=0;exitX=0.643;exitY=0.007;exitDx=0;exitDy=0;exitPerimeter=0;" parent="WIyWlLk6GJQsqaUBKTNV-1" source="woFlV1oVEV1j4pW9QUOj-24" target="woFlV1oVEV1j4pW9QUOj-5" edge="1">
          <mxGeometry width="50" height="50" relative="1" as="geometry">
            <mxPoint x="550" y="1800" as="sourcePoint" />
            <mxPoint x="600" y="1750" as="targetPoint" />
          </mxGeometry>
        </mxCell>
        <mxCell id="woFlV1oVEV1j4pW9QUOj-28" value="Human" style="swimlane;fontStyle=1;align=center;verticalAlign=top;childLayout=stackLayout;horizontal=1;startSize=26;horizontalStack=0;resizeParent=1;resizeParentMax=0;resizeLast=0;collapsible=1;marginBottom=0;" parent="WIyWlLk6GJQsqaUBKTNV-1" vertex="1">
          <mxGeometry x="800" y="875" width="160" height="242" as="geometry" />
        </mxCell>
        <mxCell id="woFlV1oVEV1j4pW9QUOj-29" value="age" style="text;strokeColor=none;fillColor=none;align=left;verticalAlign=top;spacingLeft=4;spacingRight=4;overflow=hidden;rotatable=0;points=[[0,0.5],[1,0.5]];portConstraint=eastwest;" parent="woFlV1oVEV1j4pW9QUOj-28" vertex="1">
          <mxGeometry y="26" width="160" height="26" as="geometry" />
        </mxCell>
        <mxCell id="woFlV1oVEV1j4pW9QUOj-30" value="name" style="text;strokeColor=none;fillColor=none;align=left;verticalAlign=top;spacingLeft=4;spacingRight=4;overflow=hidden;rotatable=0;points=[[0,0.5],[1,0.5]];portConstraint=eastwest;" parent="woFlV1oVEV1j4pW9QUOj-28" vertex="1">
          <mxGeometry y="52" width="160" height="26" as="geometry" />
        </mxCell>
        <mxCell id="woFlV1oVEV1j4pW9QUOj-31" value="mood&#xa;" style="text;strokeColor=none;fillColor=none;align=left;verticalAlign=top;spacingLeft=4;spacingRight=4;overflow=hidden;rotatable=0;points=[[0,0.5],[1,0.5]];portConstraint=eastwest;" parent="woFlV1oVEV1j4pW9QUOj-28" vertex="1">
          <mxGeometry y="78" width="160" height="26" as="geometry" />
        </mxCell>
        <mxCell id="woFlV1oVEV1j4pW9QUOj-32" value="current building" style="text;strokeColor=none;fillColor=none;align=left;verticalAlign=top;spacingLeft=4;spacingRight=4;overflow=hidden;rotatable=0;points=[[0,0.5],[1,0.5]];portConstraint=eastwest;" parent="woFlV1oVEV1j4pW9QUOj-28" vertex="1">
          <mxGeometry y="104" width="160" height="26" as="geometry" />
        </mxCell>
        <mxCell id="woFlV1oVEV1j4pW9QUOj-33" value="health points" style="text;strokeColor=none;fillColor=none;align=left;verticalAlign=top;spacingLeft=4;spacingRight=4;overflow=hidden;rotatable=0;points=[[0,0.5],[1,0.5]];portConstraint=eastwest;" parent="woFlV1oVEV1j4pW9QUOj-28" vertex="1">
          <mxGeometry y="130" width="160" height="26" as="geometry" />
        </mxCell>
        <mxCell id="woFlV1oVEV1j4pW9QUOj-34" value="" style="line;strokeWidth=1;fillColor=none;align=left;verticalAlign=middle;spacingTop=-1;spacingLeft=3;spacingRight=3;rotatable=0;labelPosition=right;points=[];portConstraint=eastwest;strokeColor=inherit;" parent="woFlV1oVEV1j4pW9QUOj-28" vertex="1">
          <mxGeometry y="156" width="160" height="8" as="geometry" />
        </mxCell>
        <mxCell id="woFlV1oVEV1j4pW9QUOj-35" value="eat" style="text;strokeColor=none;fillColor=none;align=left;verticalAlign=top;spacingLeft=4;spacingRight=4;overflow=hidden;rotatable=0;points=[[0,0.5],[1,0.5]];portConstraint=eastwest;" parent="woFlV1oVEV1j4pW9QUOj-28" vertex="1">
          <mxGeometry y="164" width="160" height="26" as="geometry" />
        </mxCell>
        <mxCell id="woFlV1oVEV1j4pW9QUOj-36" value="sleep" style="text;strokeColor=none;fillColor=none;align=left;verticalAlign=top;spacingLeft=4;spacingRight=4;overflow=hidden;rotatable=0;points=[[0,0.5],[1,0.5]];portConstraint=eastwest;" parent="woFlV1oVEV1j4pW9QUOj-28" vertex="1">
          <mxGeometry y="190" width="160" height="26" as="geometry" />
        </mxCell>
        <mxCell id="woFlV1oVEV1j4pW9QUOj-37" value="go&#xa;" style="text;strokeColor=none;fillColor=none;align=left;verticalAlign=top;spacingLeft=4;spacingRight=4;overflow=hidden;rotatable=0;points=[[0,0.5],[1,0.5]];portConstraint=eastwest;" parent="woFlV1oVEV1j4pW9QUOj-28" vertex="1">
          <mxGeometry y="216" width="160" height="26" as="geometry" />
        </mxCell>
        <mxCell id="woFlV1oVEV1j4pW9QUOj-38" value="Building" style="swimlane;fontStyle=1;align=center;verticalAlign=top;childLayout=stackLayout;horizontal=1;startSize=26;horizontalStack=0;resizeParent=1;resizeLast=0;collapsible=1;marginBottom=0;rounded=0;shadow=0;strokeWidth=1;" parent="WIyWlLk6GJQsqaUBKTNV-1" vertex="1">
          <mxGeometry x="330" y="1862" width="160" height="40" as="geometry">
            <mxRectangle x="550" y="140" width="160" height="26" as="alternateBounds" />
          </mxGeometry>
        </mxCell>
        <mxCell id="woFlV1oVEV1j4pW9QUOj-39" value="" style="line;html=1;strokeWidth=1;align=left;verticalAlign=middle;spacingTop=-1;spacingLeft=3;spacingRight=3;rotatable=0;labelPosition=right;points=[];portConstraint=eastwest;" parent="woFlV1oVEV1j4pW9QUOj-38" vertex="1">
          <mxGeometry y="26" width="160" height="8" as="geometry" />
        </mxCell>
        <mxCell id="woFlV1oVEV1j4pW9QUOj-40" value="" style="endArrow=block;endSize=16;endFill=0;html=1;rounded=0;" parent="WIyWlLk6GJQsqaUBKTNV-1" source="woFlV1oVEV1j4pW9QUOj-24" target="woFlV1oVEV1j4pW9QUOj-38" edge="1">
          <mxGeometry width="160" relative="1" as="geometry">
            <mxPoint x="480" y="1910" as="sourcePoint" />
            <mxPoint x="640" y="1910" as="targetPoint" />
          </mxGeometry>
        </mxCell>
        <mxCell id="woFlV1oVEV1j4pW9QUOj-41" value="" style="endArrow=block;endSize=16;endFill=0;html=1;rounded=0;entryX=0.565;entryY=-0.005;entryDx=0;entryDy=0;entryPerimeter=0;" parent="WIyWlLk6GJQsqaUBKTNV-1" source="woFlV1oVEV1j4pW9QUOj-16" target="woFlV1oVEV1j4pW9QUOj-38" edge="1">
          <mxGeometry width="160" relative="1" as="geometry">
            <mxPoint x="479.7358490566039" y="1836" as="sourcePoint" />
            <mxPoint x="505.5471698113208" y="1950" as="targetPoint" />
          </mxGeometry>
        </mxCell>
        <mxCell id="woFlV1oVEV1j4pW9QUOj-42" value="" style="endArrow=block;endSize=16;endFill=0;html=1;rounded=0;" parent="WIyWlLk6GJQsqaUBKTNV-1" source="woFlV1oVEV1j4pW9QUOj-20" target="woFlV1oVEV1j4pW9QUOj-38" edge="1">
          <mxGeometry width="160" relative="1" as="geometry">
            <mxPoint x="489.7358490566039" y="1846" as="sourcePoint" />
            <mxPoint x="515.5471698113208" y="1960" as="targetPoint" />
          </mxGeometry>
        </mxCell>
        <mxCell id="woFlV1oVEV1j4pW9QUOj-43" value="" style="endArrow=block;endSize=16;endFill=0;html=1;rounded=0;" parent="WIyWlLk6GJQsqaUBKTNV-1" source="woFlV1oVEV1j4pW9QUOj-1" target="woFlV1oVEV1j4pW9QUOj-28" edge="1">
          <mxGeometry width="160" relative="1" as="geometry">
            <mxPoint x="639.9958490566039" y="1292" as="sourcePoint" />
            <mxPoint x="665.8071698113208" y="1406" as="targetPoint" />
          </mxGeometry>
        </mxCell>
        <mxCell id="woFlV1oVEV1j4pW9QUOj-44" value="" style="endArrow=none;dashed=1;html=1;dashPattern=1 3;strokeWidth=2;rounded=0;" parent="WIyWlLk6GJQsqaUBKTNV-1" source="woFlV1oVEV1j4pW9QUOj-13" target="woFlV1oVEV1j4pW9QUOj-5" edge="1">
          <mxGeometry width="50" height="50" relative="1" as="geometry">
            <mxPoint x="722.8799999999999" y="1810.6020000000003" as="sourcePoint" />
            <mxPoint x="707.2550096286959" y="1634" as="targetPoint" />
          </mxGeometry>
        </mxCell>
        <mxCell id="woFlV1oVEV1j4pW9QUOj-45" value="Group" style="swimlane;fontStyle=1;align=center;verticalAlign=top;childLayout=stackLayout;horizontal=1;startSize=26;horizontalStack=0;resizeParent=1;resizeParentMax=0;resizeLast=0;collapsible=1;marginBottom=0;" parent="WIyWlLk6GJQsqaUBKTNV-1" vertex="1">
          <mxGeometry x="490" y="1360" width="150" height="138" as="geometry" />
        </mxCell>
        <mxCell id="woFlV1oVEV1j4pW9QUOj-46" value="vector&lt;Stiudent&gt;" style="text;strokeColor=none;fillColor=none;align=left;verticalAlign=top;spacingLeft=4;spacingRight=4;overflow=hidden;rotatable=0;points=[[0,0.5],[1,0.5]];portConstraint=eastwest;" parent="woFlV1oVEV1j4pW9QUOj-45" vertex="1">
          <mxGeometry y="26" width="150" height="26" as="geometry" />
        </mxCell>
        <mxCell id="woFlV1oVEV1j4pW9QUOj-47" value="vector&lt;Subject&gt;" style="text;strokeColor=none;fillColor=none;align=left;verticalAlign=top;spacingLeft=4;spacingRight=4;overflow=hidden;rotatable=0;points=[[0,0.5],[1,0.5]];portConstraint=eastwest;" parent="woFlV1oVEV1j4pW9QUOj-45" vertex="1">
          <mxGeometry y="52" width="150" height="26" as="geometry" />
        </mxCell>
        <mxCell id="woFlV1oVEV1j4pW9QUOj-48" value="" style="line;strokeWidth=1;fillColor=none;align=left;verticalAlign=middle;spacingTop=-1;spacingLeft=3;spacingRight=3;rotatable=0;labelPosition=right;points=[];portConstraint=eastwest;strokeColor=inherit;" parent="woFlV1oVEV1j4pW9QUOj-45" vertex="1">
          <mxGeometry y="78" width="150" height="8" as="geometry" />
        </mxCell>
        <mxCell id="woFlV1oVEV1j4pW9QUOj-49" value="get_type # math/ course" style="text;strokeColor=none;fillColor=none;align=left;verticalAlign=top;spacingLeft=4;spacingRight=4;overflow=hidden;rotatable=0;points=[[0,0.5],[1,0.5]];portConstraint=eastwest;" parent="woFlV1oVEV1j4pW9QUOj-45" vertex="1">
          <mxGeometry y="86" width="150" height="26" as="geometry" />
        </mxCell>
        <mxCell id="woFlV1oVEV1j4pW9QUOj-50" value="subscribe_student_to_subject" style="text;strokeColor=none;fillColor=none;align=left;verticalAlign=top;spacingLeft=4;spacingRight=4;overflow=hidden;rotatable=0;points=[[0,0.5],[1,0.5]];portConstraint=eastwest;" parent="woFlV1oVEV1j4pW9QUOj-45" vertex="1">
          <mxGeometry y="112" width="150" height="26" as="geometry" />
        </mxCell>
        <mxCell id="woFlV1oVEV1j4pW9QUOj-51" value="" style="endArrow=diamondThin;endFill=0;endSize=24;html=1;rounded=0;entryX=1;entryY=0.5;entryDx=0;entryDy=0;" parent="WIyWlLk6GJQsqaUBKTNV-1" source="woFlV1oVEV1j4pW9QUOj-45" target="woFlV1oVEV1j4pW9QUOj-18" edge="1">
          <mxGeometry width="160" relative="1" as="geometry">
            <mxPoint x="480" y="1540" as="sourcePoint" />
            <mxPoint x="640" y="1540" as="targetPoint" />
            <Array as="points">
              <mxPoint x="570" y="1575" />
            </Array>
          </mxGeometry>
        </mxCell>
        <mxCell id="woFlV1oVEV1j4pW9QUOj-52" value="" style="endArrow=diamondThin;endFill=1;endSize=24;html=1;rounded=0;" parent="WIyWlLk6GJQsqaUBKTNV-1" source="woFlV1oVEV1j4pW9QUOj-5" target="woFlV1oVEV1j4pW9QUOj-46" edge="1">
          <mxGeometry width="160" relative="1" as="geometry">
            <mxPoint x="480" y="1540" as="sourcePoint" />
            <mxPoint x="640" y="1540" as="targetPoint" />
            <Array as="points">
              <mxPoint x="680" y="1560" />
              <mxPoint x="680" y="1520" />
              <mxPoint x="680" y="1400" />
              <mxPoint x="640" y="1400" />
            </Array>
          </mxGeometry>
        </mxCell>
        <mxCell id="woFlV1oVEV1j4pW9QUOj-53" value="Department" style="swimlane;fontStyle=1;align=center;verticalAlign=top;childLayout=stackLayout;horizontal=1;startSize=26;horizontalStack=0;resizeParent=1;resizeParentMax=0;resizeLast=0;collapsible=1;marginBottom=0;" parent="WIyWlLk6GJQsqaUBKTNV-1" vertex="1">
          <mxGeometry x="230" y="1320" width="160" height="34" as="geometry" />
        </mxCell>
        <mxCell id="woFlV1oVEV1j4pW9QUOj-54" value="" style="line;strokeWidth=1;fillColor=none;align=left;verticalAlign=middle;spacingTop=-1;spacingLeft=3;spacingRight=3;rotatable=0;labelPosition=right;points=[];portConstraint=eastwest;strokeColor=inherit;" parent="woFlV1oVEV1j4pW9QUOj-53" vertex="1">
          <mxGeometry y="26" width="160" height="8" as="geometry" />
        </mxCell>
        <mxCell id="woFlV1oVEV1j4pW9QUOj-55" value="" style="endArrow=diamondThin;endFill=0;endSize=24;html=1;rounded=0;entryX=-0.004;entryY=0.885;entryDx=0;entryDy=0;entryPerimeter=0;" parent="WIyWlLk6GJQsqaUBKTNV-1" source="woFlV1oVEV1j4pW9QUOj-53" target="woFlV1oVEV1j4pW9QUOj-17" edge="1">
          <mxGeometry width="160" relative="1" as="geometry">
            <mxPoint x="480" y="1490" as="sourcePoint" />
            <mxPoint x="640" y="1490" as="targetPoint" />
            <Array as="points">
              <mxPoint x="160" y="1337" />
              <mxPoint x="160" y="1560" />
            </Array>
          </mxGeometry>
        </mxCell>
        <mxCell id="woFlV1oVEV1j4pW9QUOj-56" value="" style="endArrow=diamondThin;endFill=1;endSize=24;html=1;rounded=0;" parent="WIyWlLk6GJQsqaUBKTNV-1" source="woFlV1oVEV1j4pW9QUOj-13" target="woFlV1oVEV1j4pW9QUOj-53" edge="1">
          <mxGeometry width="160" relative="1" as="geometry">
            <mxPoint x="180" y="1330" as="sourcePoint" />
            <mxPoint x="340" y="1330" as="targetPoint" />
            <Array as="points">
              <mxPoint x="360" y="1320" />
            </Array>
          </mxGeometry>
        </mxCell>
        <mxCell id="woFlV1oVEV1j4pW9QUOj-57" value="Subject" style="swimlane;fontStyle=1;align=center;verticalAlign=top;childLayout=stackLayout;horizontal=1;startSize=26;horizontalStack=0;resizeParent=1;resizeParentMax=0;resizeLast=0;collapsible=1;marginBottom=0;" parent="WIyWlLk6GJQsqaUBKTNV-1" vertex="1">
          <mxGeometry x="230" y="1130" width="160" height="34" as="geometry" />
        </mxCell>
        <mxCell id="woFlV1oVEV1j4pW9QUOj-58" value="" style="line;strokeWidth=1;fillColor=none;align=left;verticalAlign=middle;spacingTop=-1;spacingLeft=3;spacingRight=3;rotatable=0;labelPosition=right;points=[];portConstraint=eastwest;strokeColor=inherit;" parent="woFlV1oVEV1j4pW9QUOj-57" vertex="1">
          <mxGeometry y="26" width="160" height="8" as="geometry" />
        </mxCell>
        <mxCell id="woFlV1oVEV1j4pW9QUOj-59" value="" style="endArrow=diamondThin;endFill=0;endSize=24;html=1;rounded=0;" parent="WIyWlLk6GJQsqaUBKTNV-1" source="woFlV1oVEV1j4pW9QUOj-57" target="woFlV1oVEV1j4pW9QUOj-53" edge="1">
          <mxGeometry width="160" relative="1" as="geometry">
            <mxPoint x="300.96000000000004" y="1136.34" as="sourcePoint" />
            <mxPoint x="340" y="1234.58" as="targetPoint" />
          </mxGeometry>
        </mxCell>
        <mxCell id="woFlV1oVEV1j4pW9QUOj-60" value="" style="endArrow=diamondThin;endFill=1;endSize=24;html=1;rounded=0;entryX=1.01;entryY=0.167;entryDx=0;entryDy=0;entryPerimeter=0;" parent="WIyWlLk6GJQsqaUBKTNV-1" source="woFlV1oVEV1j4pW9QUOj-13" target="woFlV1oVEV1j4pW9QUOj-57" edge="1">
          <mxGeometry width="160" relative="1" as="geometry">
            <mxPoint x="590" y="1049.0000000000002" as="sourcePoint" />
            <mxPoint x="510" y="1060" as="targetPoint" />
            <Array as="points" />
          </mxGeometry>
        </mxCell>
        <mxCell id="woFlV1oVEV1j4pW9QUOj-61" value="Task" style="swimlane;fontStyle=1;align=center;verticalAlign=top;childLayout=stackLayout;horizontal=1;startSize=26;horizontalStack=0;resizeParent=1;resizeParentMax=0;resizeLast=0;collapsible=1;marginBottom=0;" parent="WIyWlLk6GJQsqaUBKTNV-1" vertex="1">
          <mxGeometry x="230" y="940" width="160" height="112" as="geometry" />
        </mxCell>
        <mxCell id="woFlV1oVEV1j4pW9QUOj-62" value="" style="line;strokeWidth=1;fillColor=none;align=left;verticalAlign=middle;spacingTop=-1;spacingLeft=3;spacingRight=3;rotatable=0;labelPosition=right;points=[];portConstraint=eastwest;strokeColor=inherit;" parent="woFlV1oVEV1j4pW9QUOj-61" vertex="1">
          <mxGeometry y="26" width="160" height="8" as="geometry" />
        </mxCell>
        <mxCell id="woFlV1oVEV1j4pW9QUOj-63" value="do" style="text;strokeColor=none;fillColor=none;align=left;verticalAlign=top;spacingLeft=4;spacingRight=4;overflow=hidden;rotatable=0;points=[[0,0.5],[1,0.5]];portConstraint=eastwest;" parent="woFlV1oVEV1j4pW9QUOj-61" vertex="1">
          <mxGeometry y="34" width="160" height="26" as="geometry" />
        </mxCell>
        <mxCell id="woFlV1oVEV1j4pW9QUOj-64" value="check" style="text;strokeColor=none;fillColor=none;align=left;verticalAlign=top;spacingLeft=4;spacingRight=4;overflow=hidden;rotatable=0;points=[[0,0.5],[1,0.5]];portConstraint=eastwest;" parent="woFlV1oVEV1j4pW9QUOj-61" vertex="1">
          <mxGeometry y="60" width="160" height="26" as="geometry" />
        </mxCell>
        <mxCell id="woFlV1oVEV1j4pW9QUOj-65" value="pass" style="text;strokeColor=none;fillColor=none;align=left;verticalAlign=top;spacingLeft=4;spacingRight=4;overflow=hidden;rotatable=0;points=[[0,0.5],[1,0.5]];portConstraint=eastwest;" parent="woFlV1oVEV1j4pW9QUOj-61" vertex="1">
          <mxGeometry y="86" width="160" height="26" as="geometry" />
        </mxCell>
        <mxCell id="woFlV1oVEV1j4pW9QUOj-66" value="" style="endArrow=diamondThin;endFill=0;endSize=24;html=1;rounded=0;" parent="WIyWlLk6GJQsqaUBKTNV-1" source="woFlV1oVEV1j4pW9QUOj-61" target="woFlV1oVEV1j4pW9QUOj-57" edge="1">
          <mxGeometry width="160" relative="1" as="geometry">
            <mxPoint x="494" y="1050" as="sourcePoint" />
            <mxPoint x="654" y="1050" as="targetPoint" />
          </mxGeometry>
        </mxCell>
        <mxCell id="woFlV1oVEV1j4pW9QUOj-67" value="Lesson" style="swimlane;fontStyle=1;align=center;verticalAlign=top;childLayout=stackLayout;horizontal=1;startSize=26;horizontalStack=0;resizeParent=1;resizeParentMax=0;resizeLast=0;collapsible=1;marginBottom=0;" parent="WIyWlLk6GJQsqaUBKTNV-1" vertex="1">
          <mxGeometry x="480" y="850" width="160" height="112" as="geometry" />
        </mxCell>
        <mxCell id="woFlV1oVEV1j4pW9QUOj-68" value="room" style="text;strokeColor=none;fillColor=none;align=left;verticalAlign=top;spacingLeft=4;spacingRight=4;overflow=hidden;rotatable=0;points=[[0,0.5],[1,0.5]];portConstraint=eastwest;" parent="woFlV1oVEV1j4pW9QUOj-67" vertex="1">
          <mxGeometry y="26" width="160" height="26" as="geometry" />
        </mxCell>
        <mxCell id="woFlV1oVEV1j4pW9QUOj-69" value="vector&lt;Student&gt;" style="text;strokeColor=none;fillColor=none;align=left;verticalAlign=top;spacingLeft=4;spacingRight=4;overflow=hidden;rotatable=0;points=[[0,0.5],[1,0.5]];portConstraint=eastwest;" parent="woFlV1oVEV1j4pW9QUOj-67" vertex="1">
          <mxGeometry y="52" width="160" height="26" as="geometry" />
        </mxCell>
        <mxCell id="woFlV1oVEV1j4pW9QUOj-70" value="subject" style="text;strokeColor=none;fillColor=none;align=left;verticalAlign=top;spacingLeft=4;spacingRight=4;overflow=hidden;rotatable=0;points=[[0,0.5],[1,0.5]];portConstraint=eastwest;" parent="woFlV1oVEV1j4pW9QUOj-67" vertex="1">
          <mxGeometry y="78" width="160" height="26" as="geometry" />
        </mxCell>
        <mxCell id="woFlV1oVEV1j4pW9QUOj-71" value="" style="line;strokeWidth=1;fillColor=none;align=left;verticalAlign=middle;spacingTop=-1;spacingLeft=3;spacingRight=3;rotatable=0;labelPosition=right;points=[];portConstraint=eastwest;strokeColor=inherit;" parent="woFlV1oVEV1j4pW9QUOj-67" vertex="1">
          <mxGeometry y="104" width="160" height="8" as="geometry" />
        </mxCell>
        <mxCell id="woFlV1oVEV1j4pW9QUOj-72" value="" style="endArrow=diamondThin;endFill=1;endSize=24;html=1;rounded=0;" parent="WIyWlLk6GJQsqaUBKTNV-1" edge="1">
          <mxGeometry width="160" relative="1" as="geometry">
            <mxPoint x="780" y="560" as="sourcePoint" />
            <mxPoint x="940" y="560" as="targetPoint" />
          </mxGeometry>
        </mxCell>
        <mxCell id="woFlV1oVEV1j4pW9QUOj-73" value="" style="endArrow=diamondThin;endFill=0;endSize=24;html=1;rounded=0;" parent="WIyWlLk6GJQsqaUBKTNV-1" edge="1">
          <mxGeometry width="160" relative="1" as="geometry">
            <mxPoint x="780" y="590" as="sourcePoint" />
            <mxPoint x="940" y="590" as="targetPoint" />
          </mxGeometry>
        </mxCell>
        <mxCell id="woFlV1oVEV1j4pW9QUOj-74" value="" style="endArrow=block;endSize=16;endFill=0;html=1;rounded=0;" parent="WIyWlLk6GJQsqaUBKTNV-1" edge="1">
          <mxGeometry width="160" relative="1" as="geometry">
            <mxPoint x="780" y="620" as="sourcePoint" />
            <mxPoint x="940" y="620" as="targetPoint" />
          </mxGeometry>
        </mxCell>
        <mxCell id="woFlV1oVEV1j4pW9QUOj-75" value="" style="endArrow=none;dashed=1;html=1;dashPattern=1 3;strokeWidth=2;rounded=0;" parent="WIyWlLk6GJQsqaUBKTNV-1" edge="1">
          <mxGeometry width="50" height="50" relative="1" as="geometry">
            <mxPoint x="780" y="650" as="sourcePoint" />
            <mxPoint x="930" y="650" as="targetPoint" />
          </mxGeometry>
        </mxCell>
        <mxCell id="woFlV1oVEV1j4pW9QUOj-76" value="relationships" style="text;html=1;strokeColor=none;fillColor=none;align=center;verticalAlign=middle;whiteSpace=wrap;rounded=0;" parent="WIyWlLk6GJQsqaUBKTNV-1" vertex="1">
          <mxGeometry x="660" y="630" width="90" height="30" as="geometry" />
        </mxCell>
        <mxCell id="woFlV1oVEV1j4pW9QUOj-77" value="inheretence" style="text;html=1;strokeColor=none;fillColor=none;align=center;verticalAlign=middle;whiteSpace=wrap;rounded=0;" parent="WIyWlLk6GJQsqaUBKTNV-1" vertex="1">
          <mxGeometry x="660" y="600" width="80" height="30" as="geometry" />
        </mxCell>
        <mxCell id="woFlV1oVEV1j4pW9QUOj-78" value="agregation (exists)" style="text;html=1;strokeColor=none;fillColor=none;align=center;verticalAlign=middle;whiteSpace=wrap;rounded=0;" parent="WIyWlLk6GJQsqaUBKTNV-1" vertex="1">
          <mxGeometry x="560" y="545" width="225" height="30" as="geometry" />
        </mxCell>
        <mxCell id="woFlV1oVEV1j4pW9QUOj-79" value="composition (doesn&#39;t exist)" style="text;html=1;strokeColor=none;fillColor=none;align=center;verticalAlign=middle;whiteSpace=wrap;rounded=0;" parent="WIyWlLk6GJQsqaUBKTNV-1" vertex="1">
          <mxGeometry x="600" y="576" width="150" height="24" as="geometry" />
        </mxCell>
        <mxCell id="c0BRm0pyYl1ydU1t3Dmy-0" value="" style="shape=umlActor;verticalLabelPosition=bottom;verticalAlign=top;html=1;outlineConnect=0;" parent="WIyWlLk6GJQsqaUBKTNV-1" vertex="1">
          <mxGeometry x="970" y="740" width="30" height="60" as="geometry" />
        </mxCell>
      </root>
    </mxGraphModel>
  </diagram>
</mxfile>
